<svg width="24" height="24" xmlns="http://www.w3.org/2000/svg">
    <path d="M11.333 12.545v6.667H4.667v-6.667h6.666zm3.03 4.243v1.211l4.85.001v1.212h-6.061v-2.424h1.212zm-4.242-3.03H5.879v4.241h4.242v-4.242zm4.243-1.213v1.818h1.211v-1.818h3.637v4.243H18v-3.03h-1.213v1.818h-3.635v-3.03h1.212zM8.909 14.97v1.818H7.091V14.97h1.818zm2.424-10.303v6.666H4.667V4.667h6.666zm7.88 0v6.666h-6.668V4.667h6.667zM10.12 5.879H5.879v4.242h4.242V5.879zm7.878 0h-4.242v4.242H18V5.879zM8.91 7.09v1.818H7.091V7.091h1.818zm7.879 0v1.818H14.97V7.091h1.818z" fill="#FFF" fill-rule="evenodd"/>
</svg>
