<svg width="290" height="399" xmlns="http://www.w3.org/2000/svg">
    <g fill="none" fill-rule="evenodd">
        <g transform="translate(25.6 40.107)">
            <ellipse fill="#63A0C7" opacity=".103" cx="54.273" cy="174.834" rx="54.273" ry="6.075"/>
            <path d="M74.625 79.136 73.37 84.54s.419 12.474-2.927 11.226c-3.346-1.247-2.51-12.058-2.51-12.058l2.928-5.405 3.764.832z" fill="#FFB8B8" fill-rule="nonzero"/>
            <ellipse fill="#FFB8B8" fill-rule="nonzero" cx="55.63" cy="10.801" rx="8.141" ry="8.1"/>
            <path d="m49.646 13.5-.8 12.236L58.855 27s0-10.125.802-11.39c.8-1.267-10.012-2.11-10.012-2.11z" fill="#FFB8B8" fill-rule="nonzero"/>
            <path d="m73.268 28.7-13.595-5.772S53.176 17.9 49.37 21.625l-1.708 2.458s-15.103 5.918-15.1 10.557l5.896 23.191s-3.346 13.077 1.691 13.916l27.282 2.507s3.773-4.643.41-10.544L69.09 49.79l4.178-21.09z" fill="#D5E4ED" fill-rule="nonzero"/>
            <path d="m63.77 30.124 8.941-.423s2.846.827 4.885 8.703c2.039 7.876 2.456 20.728 2.456 20.728l-4.857 23.222-6.097-.824 2.42-22.39-4.078-14.923-3.67-14.093zM37.633 32.402l-4.757 1.404s-4.01 5.651-4.008 8.553c.003 2.902-1.732 24.877-1.732 24.877L38.56 85.054l3.501-8.71-7.03-11.187 5.691-13.687-3.089-19.068z" fill="#D5E4ED" fill-rule="nonzero"/>
            <path d="m67.895 72.862-30.24-2.658s-2.988 19.046-2.568 26.61c.42 7.563.842 19.33.842 19.33l-3.365 51.264 13.039-1.68 1.682-42.441 5.468-23.112 6.31 29.415 4.205 37.818 11.357-1.26-3.786-45.803s3.365-41.18-2.944-47.483z" fill="#2F2E41" fill-rule="nonzero"/>
            <path d="m72.437 164.708 3.9 1.267s8.232-2.111 6.066 3.377c-2.167 5.489-8.233 4.644-8.233 4.644s-7.366 5.488-10.4 1.267l1.734-8.866 6.933-1.689zM41.23 164.708l3.9 1.267s8.232-2.111 6.066 3.377c-2.167 5.489-8.233 4.644-8.233 4.644s-7.366 5.488-10.4 1.267l1.734-8.866 6.933-1.689zM49.066 18.9s-8.994-6.476-4.283-14.25C48.052-.741 54.824-.314 58.666.453a6.5 6.5 0 0 1 4.748 3.767c.642 1.511.642 3.023-1.928 3.023-5.14 0-2.57 3.886-2.57 3.886s-3.426.864-2.57 3.887c.857 3.022-7.28 3.886-7.28 3.886z" fill="#2F2E41" fill-rule="nonzero"/>
        </g>
        <g transform="translate(94.345 76.289)">
            <ellipse fill="#63A0C7" opacity=".103" cx="90.455" cy="297.294" rx="90.455" ry="10.252"/>
            <path d="M100.1 282.486s-15.659 1.258-14.053 7.13c1.607 5.872 14.054 5.034 14.054 5.034s9.637-.84 14.856.838c5.22 1.678 11.243 0 11.645-2.936.401-2.936-2.811-5.033-2.811-5.033l-2.008-4.194-21.682-.839z" fill="#2F2E41" fill-rule="nonzero"/>
            <path d="m137.876 150.356 1.679 6.19s7.556 14.313-1.68 14.313c-9.235 0-5.876-13.153-5.876-13.153l-.84-6.19 6.717-1.16z" fill="#9F616A" fill-rule="nonzero"/>
            <ellipse fill="#9F616A" fill-rule="nonzero" cx="96.108" cy="23.92" rx="16.96" ry="17.086"/>
            <path d="M90.455 36.98s1.943 9.23.777 13.643c-1.166 4.414 24.098-.802 24.098-.802s-8.94-15.248-8.551-15.65l-16.324 2.81z" fill="#9F616A" fill-rule="nonzero"/>
            <path d="M94.01 47.488s-7.25-2.002-9.665.41c-2.414 2.412-16.504 9.252-16.504 9.252l9.718 59.034 41.877-9.275 7.2-55.835s-11.426-6.668-13.367-5.336c-1.94 1.333-19.258 1.75-19.258 1.75z" fill="#5094BF" fill-rule="nonzero"/>
            <path d="m71.6 57.984-1.876-1.031s-7.107 1.44-6.712 7.055c.395 5.616 1.984 36.901 1.984 36.901l-6.2 56.564 11.327 1.995 11.286-47.342-9.81-54.142zM125.014 53.43l1.868-1.033s7.085 1.427 6.7 7.043c-.384 5.616-1.914 36.904-1.914 36.904l6.275 56.552-11.286 2.016-11.327-47.322 9.684-54.16z" fill="#5094BF" fill-rule="nonzero"/>
            <path d="m76.996 110.438-1.622 24.596-5.272 49.19 7.705 102.012 26.766.806-8.111-97.172 8.11-33.466 26.512-.977s1.876-38.538-13.129-50.634l-40.959 5.645z" fill="#2F2E41" fill-rule="nonzero"/>
            <path fill="#2F2E41" fill-rule="nonzero" d="m107.332 151.03-4.178 88.73-1.393 44.868 23.475 2.414 5.923-131.951-9.106-9.292zM103.235.24S87.876-1.78 83.545 5.9c0 0-1.182 5.658-5.12 7.68-3.938 2.02.788 8.892 1.969 10.913 1.181 2.02 4.332 13.743.788 16.572-3.545 2.83 6.3 10.914 6.3 10.914s4.726 6.467.788 11.318c-3.938 4.85 5.12 6.467 5.12 6.467s-1.97 13.743 1.575 10.105c0 0 1.575 31.124 16.54 11.722 14.964-19.402 21.265-28.699 14.964-36.379-6.3-7.68-1.575-14.551-1.575-14.551s1.97-4.042-2.363-10.105C118.2 24.493 118.2.24 103.235.24zM79.749 284.764s-15.66 1.259-14.054 7.13c1.606 5.873 14.054 5.034 14.054 5.034s9.636-.84 14.856.839c5.22 1.677 11.243 0 11.644-2.936.402-2.936-2.81-5.034-2.81-5.034l-2.008-4.194-21.682-.839z"/>
        </g>
        <path d="m155.47 233.479-1.68 6.19s-7.556 14.313 1.68 14.313c9.235 0 5.877-13.153 5.877-13.153l.84-6.19-6.717-1.16z" fill="#9F616A" fill-rule="nonzero"/>
    </g>
</svg>
