<svg xmlns="http://www.w3.org/2000/svg" xmlns:xlink="http://www.w3.org/1999/xlink" width="140" height="140" viewBox="0 0 140 140">
    <defs>
        <path id="xtd0yj3bna" d="M36 0h68c19.882 0 36 16.118 36 36v68c0 19.882-16.118 36-36 36H36c-19.882 0-36-16.118-36-36V36C0 16.118 16.118 0 36 0z"/>
        <path id="ltow63srsc" d="M0 0H140V140H0z"/>
        <path id="igy8ddstve" d="M0 0L10.929 0 10.929 28.425 0 28.425z"/>
        <path id="8l08kixseg" d="M0 0L11.088 0 11.088 28.341 0 28.341z"/>
        <path id="wuq27kpkkj" d="M0 178.889L0 0 178.889 0z"/>
        <filter id="ndrmgrcmgi" width="113.4%" height="113.4%" x="-6.7%" y="-6.7%" filterUnits="objectBoundingBox">
            <feOffset in="SourceAlpha" result="shadowOffsetOuter1"/>
            <feGaussianBlur in="shadowOffsetOuter1" result="shadowBlurOuter1" stdDeviation="4"/>
            <feColorMatrix in="shadowBlurOuter1" values="0 0 0 0 0 0 0 0 0 0 0 0 0 0 0 0 0 0 0.5 0"/>
        </filter>
    </defs>
    <g fill="none" fill-rule="evenodd">
        <g>
            <g transform="translate(-650 -302) translate(650 302)">
                <mask id="wvv4mjsg2b" fill="#fff">
                    <use xlink:href="#xtd0yj3bna"/>
                </mask>
                <use fill="#C8C8C8" xlink:href="#xtd0yj3bna"/>
                <g mask="url(#wvv4mjsg2b)">
                    <mask id="vmnrixkoyd" fill="#fff">
                        <use xlink:href="#ltow63srsc"/>
                    </mask>
                    <use fill="#D8D8D8" xlink:href="#ltow63srsc"/>
                    <g mask="url(#vmnrixkoyd)">
                        <g>
                            <g>
                                <path fill="#63A0C7" d="M0 0H210V210H0z" transform="translate(-35 -35)"/>
                                <g>
                                    <path fill="#FFF" d="M25.977 30.728c-.14-.329.012-.708.342-.845 0 0 0-.002.002-.002.314-.141.687-.002.829.313l.022.05c.136.317-.012.686-.33.821l-.015.006h-.243c-.239.023-.472-.086-.607-.282v-.06zm-2.35.949c-.138-.33.022-.707.353-.844.004 0 .008-.002.012-.004.33-.123.697.039.83.363.14.33-.014.709-.342.848h-.245c-.245.026-.484-.093-.608-.303v-.06zm-2.35.968c-.137-.329.02-.706.353-.841l.01-.006c.33-.14.711.014.85.34v.003c.128.335-.032.708-.362.847-.08.019-.164.019-.245 0-.239.023-.47-.086-.606-.282v-.06zm-2.35.949c-.127-.335.035-.708.363-.848.337-.125.713.035.851.363.128.335-.032.709-.364.848h-.244c-.255.006-.49-.135-.605-.363zm-2.25 1.009c-.123-.33.039-.696.367-.828.328-.139.709.015.849.341l.002.002c.136.331-.022.709-.355.844-.004.002-.008.004-.012.004-.079.02-.162.02-.24 0-.258.01-.497-.133-.61-.363zm-2.428 1.009c-.14-.33.012-.707.342-.848h.002c.33-.135.71.022.845.351l.006.012c.132.32-.02.687-.34.818l-.027.01c-.079.018-.162.018-.24 0-.246.006-.473-.127-.588-.343zm-2.35.91c-.142-.33.014-.708.343-.848 0-.002.002-.002.002-.002.334-.125.708.035.85.364.14.326-.014.708-.342.847h-.265c-.252.006-.482-.135-.588-.361zM59.921 35.457c-.234-.26-.234-.659 0-.916.25-.238.636-.238.885 0 .25.243.256.648.016.902l-.016.014c-.11.094-.25.142-.393.14-.17.012-.336-.036-.472-.14h-.02zm-1.966 1.656c-.232-.251-.232-.644 0-.896.232-.25.617-.26.861-.024.008.006.016.014.024.024.244.234.254.625.023.872l-.023.024c-.108.098-.248.154-.393.16-.174.022-.347-.036-.472-.16h-.02zm-1.967 1.679c-.243-.258-.243-.663 0-.92.25-.236.636-.236.885 0 .244.257.244.662 0 .92-.11.092-.25.14-.393.137-.17.018-.338-.03-.472-.137h-.02zm-1.966 1.654c-.244-.233-.256-.624-.024-.872l.024-.024c.246-.247.639-.247.885 0 .242.248.242.649 0 .896-.114.104-.262.16-.413.16-.167.016-.33-.042-.452-.16h-.02zm-1.967 1.679c-.25-.246-.255-.651-.015-.904.006-.004.01-.01.015-.014.246-.248.64-.248.885 0 .232.251.232.644 0 .896-.116.094-.263.143-.413.14-.16.021-.322-.02-.452-.118h-.02zM50.09 43.78c-.242-.25-.242-.65 0-.898.246-.247.639-.247.885 0 .232.252.232.645 0 .898-.114.098-.262.154-.413.158-.173.014-.342-.044-.472-.158zM9.603 43.443c-.348-.059-.58-.386-.52-.729.062-.344.39-.579.74-.531.347.06.579.388.519.728-.048.31-.322.536-.637.532h-.102zm2.477.414c-.348-.06-.58-.386-.52-.729.04-.335.348-.575.687-.538l.034.006c.35.051.592.37.54.715 0 .004 0 .01-.002.014-.048.31-.322.536-.64.532h-.1zm2.476.394c-.337-.038-.583-.343-.543-.678l.006-.031c.048-.345.372-.583.721-.534.006 0 .012 0 .016.002.352.051.593.37.543.715l-.002.014c-.057.305-.325.528-.64.531h-.1v-.02zm2.46.413c-.35-.059-.582-.386-.522-.728.062-.343.391-.572.739-.513.348.062.58.389.52.73-.039.307-.306.535-.618.531h-.12v-.02zm2.474.414c-.348-.059-.58-.386-.52-.729.063-.342.394-.571.742-.512.345.06.579.386.517.729-.04.307-.306.536-.617.532h-.122v-.02zm2.477.414c-.346-.06-.58-.386-.518-.73.06-.342.392-.57.74-.511.347.059.579.386.519.729-.05.303-.312.526-.621.531h-.058l-.062-.02zm2.479.413c-.348-.059-.58-.386-.52-.728.06-.343.39-.572.737-.513.35.06.582.387.522.73-.06.303-.33.517-.642.511h-.097zm2.476.414c-.347-.059-.58-.386-.52-.729.049-.333.363-.565.7-.518l.038.006c.348.06.58.386.52.729-.056.303-.328.518-.638.512h-.1zm2.475.414c-.35-.05-.591-.37-.54-.713 0-.004 0-.01.003-.016.06-.345.387-.58.739-.532.35.051.591.37.54.715 0 .004 0 .008-.003.014-.056.305-.323.528-.637.532h-.102zm2.477.413c-.348-.049-.591-.37-.541-.713l.004-.015c.048-.345.371-.583.723-.534.004 0 .01 0 .014.002.35.06.581.388.521.729-.042.307-.308.535-.621.531h-.1zm2.459.394c-.34-.049-.573-.36-.524-.691l.002-.018c.052-.344.376-.583.724-.534.006 0 .012 0 .016.002.347.06.579.386.519.73-.04.307-.304.535-.62.531h-.117v-.02zm2.475.414c-.348-.06-.58-.386-.52-.729.062-.343.394-.571.74-.512.347.06.58.386.519.729-.038.307-.306.536-.618.532h-.121v-.02zM39.994 52.845c-.248-.251-.248-.653 0-.905.251-.247.654-.247.906 0 .247.252.247.654 0 .905-.109.143-.282.225-.463.22-.131.09-.286.132-.443.122v-.342zm-1.752 2.011c-.25-.237-.26-.631-.024-.88l.024-.025c.256-.237.65-.237.906 0 .256.247.264.654.016.909-.006.006-.01.012-.016.016-.122.135-.3.207-.483.2-.125.082-.276.112-.423.08v-.3zm-1.771 2.01c-.238-.255-.238-.649 0-.904.262-.24.664-.24.926 0 .252.257.252.668 0 .925-.125.135-.3.207-.483.2-.137.073-.296.086-.443.041v-.261zM34.7 58.879c-.248-.252-.248-.654 0-.905.251-.247.654-.247.905 0 .238.255.238.65 0 .905-.124.135-.297.215-.483.219-.137.048-.286.048-.422 0v-.22zm-1.752 2.01c-.247-.25-.247-.653 0-.904.252-.248.654-.248.906 0 .25.237.262.631.024.88l-.024.025c-.12.138-.298.219-.483.219-.133.034-.278.02-.403-.038l-.02-.181zM31.177 62.9c-.25-.258-.25-.668 0-.925.251-.248.654-.248.906 0 .247.249.247.653 0 .905-.115.136-.284.217-.463.22-.147.035-.304.02-.443-.04v-.16zm-1.752 2.01c-.255-.247-.261-.653-.016-.91l.016-.014c.252-.248.655-.248.906 0 .25.235.262.63.024.882l-.024.022c-.12.141-.298.222-.483.222-.145.022-.296-.006-.423-.08v-.121zm-1.771 2.011c-.238-.255-.238-.65 0-.904.248-.256.654-.262.91-.017.006.006.012.01.016.017.248.25.248.653 0 .904-.12.14-.296.22-.483.22-.16.008-.316-.043-.443-.14v-.08zm-1.771 2.011c-.248-.251-.248-.653 0-.905.235-.249.632-.261.883-.024l.022.024c.24.256.24.65 0 .905-.124.135-.298.216-.483.22-.157-.013-.304-.077-.422-.18v-.04zm-1.752 2.011c-.247-.251-.247-.653 0-.905.252-.247.654-.247.906 0 .256.248.262.654.016.91l-.016.015c-.123.135-.3.208-.483.2-.165-.01-.32-.091-.423-.22z" transform="translate(-35 -35) translate(86.042 82.079)"/>
                                    <g transform="translate(-35 -35) translate(86.042 82.079) translate(24.295)">
                                        <mask id="tdqzvsj2pf" fill="#fff">
                                            <use xlink:href="#igy8ddstve"/>
                                        </mask>
                                        <path fill="#FFF" d="M10.434 6.586c-.51-.559-1.227-.877-1.98-.881h-5.82c-.751.006-1.468.324-1.979.88C.247 7.036.014 7.62 0 8.228v7.527c.194.553.794.843 1.338.65.303-.107.539-.347.642-.65V9.61c.011-.159.142-.28.298-.28.165-.013.305.113.317.278V27.125c0 .719.576 1.302 1.287 1.3.71 0 1.287-.581 1.287-1.3v-10.27c0-.166.132-.3.297-.3.162 0 .296.134.296.3v10.23c.09.725.74 1.24 1.457 1.15.594-.075 1.063-.55 1.137-1.15V9.61c0-.167.134-.3.299-.3.162 0 .295.133.295.3v6.186c.192.552.79.842 1.338.648.299-.106.534-.346.641-.648V8.227c-.004-.61-.237-1.199-.653-1.641M5.525 5.084c1.388.01 2.522-1.119 2.534-2.522C8.07 1.159 6.952.012 5.565-.001 4.177-.01 3.043 1.12 3.03 2.522v.02c0 1.397 1.112 2.532 2.494 2.542" mask="url(#tdqzvsj2pf)"/>
                                    </g>
                                    <path fill="#FFF" d="M67.676 10.679c-.527-.545-1.25-.855-2.01-.86h-6.028c-.762-.005-1.49.307-2.01.86-.42.454-.655 1.044-.663 1.66v7.504c.195.552.802.842 1.358.648.304-.106.543-.344.652-.648V13.68c.01-.158.142-.28.301-.28.155-.012.29.106.301.26v17.527c.09.725.752 1.239 1.48 1.149.602-.074 1.079-.548 1.153-1.149V20.963c0-.166.137-.3.303-.3.165.002.3.136.3.3v10.224c.09.725.751 1.239 1.479 1.149.603-.074 1.079-.548 1.153-1.149V13.68c0-.154.125-.28.28-.28h.022c.158 0 .291.122.299.28v6.163c.197.552.806.842 1.358.648.308-.106.547-.344.652-.648v-7.504c-.006-.616-.244-1.206-.662-1.66m-4.702-1.481c1.41 0 2.552-1.139 2.552-2.541 0-1.403-1.141-2.541-2.552-2.541-1.41 0-2.552 1.138-2.552 2.54 0 1.403 1.141 2.542 2.552 2.542" transform="translate(-35 -35) translate(86.042 82.079)"/>
                                    <path fill="red" d="M48.46 27.82c-.508-.557-1.223-.874-1.972-.878h-5.801c-.75.004-1.466.32-1.973.877-.407.447-.64 1.03-.653 1.636v7.504c.083.576.61.981 1.18.902.465-.066.828-.435.893-.902v-6.167c0-.166.135-.3.298-.3.162.003.294.136.294.3v17.457c.032.7.61 1.249 1.303 1.237.69.012 1.26-.54 1.282-1.237V38.054c0-.166.132-.3.296-.3.164.003.294.134.294.3V48.25c.089.722.74 1.235 1.454 1.145.594-.074 1.06-.545 1.133-1.145V30.792c0-.166.132-.3.296-.3.161.003.296.136.296.3v6.167c.078.576.605.981 1.177.902.466-.066.83-.435.894-.902v-7.504c-.002-.608-.237-1.193-.65-1.636m-4.934-1.496c1.386 0 2.506-1.133 2.506-2.534 0-1.398-1.12-2.533-2.506-2.533-1.385 0-2.505 1.135-2.505 2.533 0 1.4 1.12 2.534 2.505 2.534" transform="translate(-35 -35) translate(86.042 82.079)"/>
                                    <g transform="translate(-35 -35) translate(86.042 82.079) translate(48.454 48.872)">
                                        <mask id="qnwj6iy95h" fill="#fff">
                                            <use xlink:href="#8l08kixseg"/>
                                        </mask>
                                        <path fill="#FFF" d="M10.396 6.576c-.517-.544-1.227-.855-1.973-.861H2.626c-.748-.002-1.462.311-1.973.861C.24 7.03.008 7.617 0 8.235v7.495c.01.562.47 1.01 1.026 1h.021c.555.01 1.012-.438 1.024-1V9.574c.01-.17.148-.3.316-.3.164 0 .296.134.296.3v17.467c.002.72.576 1.302 1.284 1.3.708 0 1.28-.582 1.282-1.3V16.83c.01-.158.138-.282.294-.282.156 0 .286.124.296.282V27.04c.022.708.604 1.262 1.302 1.24h.002c.684.024 1.258-.522 1.28-1.218V9.574c0-.166.132-.3.296-.3.164 0 .296.134.296.3v6.156c.012.562.47 1.01 1.024 1h.021c.557.01 1.016-.438 1.028-1V8.235c0-.618-.235-1.21-.65-1.659M5.505 5.077c1.382.01 2.513-1.117 2.523-2.52C8.04 1.155 6.926.01 5.543 0 4.16-.012 3.03 1.117 3.02 2.52c-.002.014-.002.026 0 .038.01 1.389 1.117 2.508 2.486 2.52" mask="url(#qnwj6iy95h)"/>
                                    </g>
                                    <path fill="#FFF" d="M23.527 53.02c-.512-.554-1.224-.87-1.974-.877h-5.821c-.75.004-1.465.321-1.974.878-.418.448-.651 1.038-.651 1.654v7.477c.012.56.47 1.006 1.024.996h.002c.559.01 1.024-.432 1.046-.996v-6.083c0-.164.132-.297.296-.297.164 0 .294.133.294.297v17.387c.089.72.74 1.232 1.455 1.142.592-.074 1.06-.544 1.132-1.142V63.328c0-.154.123-.281.277-.281h.017c.156 0 .288.123.298.28v10.129c.012.693.577 1.246 1.261 1.236h.022c.69.01 1.261-.539 1.28-1.236V56.069c.013-.156.143-.277.299-.277.152-.012.282.103.294.259 0 .004.002.012 0 .018v6.162c0 .582.47 1.055 1.048 1.055.578 0 1.046-.473 1.046-1.055v-7.476c-.008-.614-.241-1.202-.652-1.655m-4.913-1.575c1.383 0 2.506-1.134 2.506-2.534 0-1.397-1.123-2.53-2.506-2.53-1.386 0-2.507 1.133-2.507 2.53v.022c0 1.388 1.111 2.512 2.487 2.512h.02M10.401 19.25c-.51-.555-1.221-.872-1.97-.878H2.64c-.75-.004-1.468.315-1.97.877-.424.447-.662 1.04-.67 1.656v7.482c.012.562.469 1.01 1.022 1 .008 0 .014-.003.022-.003.558.012 1.022-.433 1.044-.997v-6.165c0-.166.134-.3.296-.3.163.003.295.136.295.3v17.457c.022.698.591 1.248 1.279 1.237.685.021 1.258-.521 1.282-1.215V29.484c.01-.158.14-.28.295-.28.162-.011.304.114.314.278V39.679c.011.694.575 1.248 1.26 1.237h.022c.688.011 1.259-.54 1.28-1.237V22.222c0-.166.134-.3.298-.3.161.003.293.136.293.3v6.165c.022.564.485 1.01 1.043.997.557.022 1.024-.415 1.046-.975V20.905c-.008-.616-.247-1.209-.67-1.656m-4.905-1.496c1.383.012 2.51-1.115 2.521-2.514.012-1.398-1.101-2.541-2.482-2.553-1.383-.01-2.51 1.115-2.521 2.514v.04c0 1.388 1.11 2.513 2.482 2.513M5.408 44.45c-.198-.286-.133-.685.143-.888.004-.002.008-.004.011-.008.269-.2.64-.138.835.14l.014.02c.197.272.145.66-.12.865l-.017.011c-.1.092-.231.144-.364.142-.203-.008-.386-.112-.502-.281m1.524 2.173c-.193-.283-.132-.67.133-.877.275-.21.66-.15.865.134 0 .002.002.004.004.006.193.289.133.682-.137.897-.106.078-.235.12-.364.12-.203 0-.392-.104-.501-.28m1.523 2.194c-.203-.283-.147-.682.127-.894.002 0 .004-.002.006-.004.28-.199.661-.137.87.142.196.285.133.684-.147.89l-.008.005c-.1.078-.223.12-.347.12-.198-.002-.382-.098-.501-.26m1.502 2.174c-.197-.285-.133-.684.146-.89.004-.001.006-.005.008-.007.274-.2.65-.136.85.14.205.267.162.656-.098.869l-.037.03c-.106.08-.235.12-.368.117-.195.002-.382-.095-.501-.259M45.612 53.123c-.195-.286-.123-.671.162-.869.278-.195.665-.133.867.143.195.29.123.684-.162.888-.102.062-.223.096-.342.1-.208-.002-.4-.098-.525-.262M47.377 54.635c-.196-.284-.123-.671.161-.867.28-.197.665-.135.867.141.196.29.123.684-.161.888-.103.062-.222.098-.343.1-.206-.002-.4-.098-.524-.262M44.1 51.61c-.194-.284-.123-.67.16-.866.281-.198.666-.136.868.14.196.291.123.684-.161.888-.103.062-.222.099-.343.1-.206-.001-.4-.098-.524-.261" transform="translate(-35 -35) translate(86.042 82.079)"/>
                                </g>
                            </g>
                            <g>
                                <g transform="translate(-35 -35)">
                                    <use fill="#000" filter="url(#ndrmgrcmgi)" xlink:href="#wuq27kpkkj"/>
                                    <use fill="#FFF" xlink:href="#wuq27kpkkj"/>
                                </g>
                                <g>
                                    <path fill="red" d="M30.166 2.466S24.536 0 15.111 0h-.003C5.683 0 .052 2.466.052 2.466s-.504 10.917 1.633 17.09C5.46 30.41 15.107 33.46 15.107 33.46h.005s9.646-3.05 13.422-13.903c2.137-6.173 1.632-17.09 1.632-17.09" transform="translate(-35 -35) translate(54.444 55.39)"/>
                                    <path fill="#FFF" d="M25.115 11.877L25.115 17.893 18.097 17.893 18.097 24.91 12.083 24.91 12.083 17.893 5.065 17.893 5.065 11.877 12.083 11.877 12.083 4.861 18.096 4.861 18.097 11.877z" transform="translate(-35 -35) translate(54.444 55.39)"/>
                                </g>
                            </g>
                        </g>
                    </g>
                </g>
            </g>
        </g>
    </g>
</svg>
